<svg height="24px" width="24px" fill="#111" viewBox="0 0 26 32">
  <path d="M14.4 5.52v-.08q0-.56.36-1t.92-.44 1 .36.48.96-.36 1-.96.4l-.24.08.08.12-.08.44-.16 1.28q.08.08.08.16l-.16.8q-.08.16-.16.24l-.08.32q-.16.64-.28 1.04t-.2.64V12q-.08.4-.12.64t-.28.8q-.16.32 0 1.04l.08.08q0 .24.2.56t.2.56q.08 1.6-.24 2.72l.16.48q.96.48.56 1.04l.4.16q.96.48 1.36.84t.8.76q.32.08.48.24l.24.08q1.68 1.12 3.36 2.72l.32.24v.08l-.08.16.24.16h.08q.24.16.32.16h.08q.08 0 .16-.08l.16-.08q.16-.16.32-.24h.32q.08 0 0 .08l-.32.16-.4.48h.56l.56.08q.24-.08.4-.16l.4-.24q.24-.08.48.16h.08q.08.08-.08.24l-.96.88q-.4.32-.72.4l-1.04.72q-.08.08-.16 0l-.24-.32-.16-.32-.2-.28-.24-.32-.2-.24-.16-.2-.32-.24q-.16 0-.32-.08l-1.04-.8q-.24 0-.56-.24-1.2-1.04-1.6-1.28l-.48-.32-.96-.16q-.48-.08-1.28-.48l-.64-.32q-.64-.32-.88-.32l-.32-.16q-.32-.08-.48-.16l-.16-.16q-.16 0-.32.08l-1.04.32q-.48.12-1.04.24l-.88.16-.96.24q-.4.08-.96.24t-.88.16h-.32q-.16.08-.32.08l-1.04.32q-.8.16-1.04.2l-.4.08-.96.24q-.4.08-.96.16l-.96.16q.4-1.28.72-2.32l.32-1.04q0-.32.16-.8z"/>
</svg> 